<?xml version="1.0" ?><!DOCTYPE svg  PUBLIC '-//W3C//DTD SVG 1.1//EN'  'http://www.w3.org/Graphics/SVG/1.1/DTD/svg11.dtd' [
	<!ENTITY stroke_color "#666666">
	<!ENTITY fill_color "#ffffff">
]><svg height="45" id="svg2215" inkscape:output_extension="org.inkscape.output.svg.inkscape" inkscape:version="0.46" sodipodi:docbase="/home/mcfletch/olpc/code/productive/Productive.activity/activity" sodipodi:docname="activity.svg" sodipodi:version="0.32" width="45" xmlns="http://www.w3.org/2000/svg" xmlns:cc="http://creativecommons.org/ns#" xmlns:dc="http://purl.org/dc/elements/1.1/" xmlns:inkscape="http://www.inkscape.org/namespaces/inkscape" xmlns:rdf="http://www.w3.org/1999/02/22-rdf-syntax-ns#" xmlns:sodipodi="http://sodipodi.sourceforge.net/DTD/sodipodi-0.dtd" xmlns:svg="http://www.w3.org/2000/svg">
  <metadata id="metadata2232">
    <rdf:RDF>
      <cc:Work rdf:about="">
        <dc:format>image/svg+xml</dc:format>
        <dc:type rdf:resource="http://purl.org/dc/dcmitype/StillImage"/>
      </cc:Work>
    </rdf:RDF>
  </metadata>
  <defs id="defs2230">
    <inkscape:perspective id="perspective8" inkscape:persp3d-origin="22.5 : 15 : 1" inkscape:vp_x="0 : 22.5 : 1" inkscape:vp_y="0 : 1000 : 0" inkscape:vp_z="45 : 22.5 : 1" sodipodi:type="inkscape:persp3d"/>
  </defs>
  <sodipodi:namedview bordercolor="#666666" borderopacity="1.0" gridtolerance="10.0" guidetolerance="10.0" id="base" inkscape:current-layer="svg2215" inkscape:cx="22.5" inkscape:cy="22.5" inkscape:pageopacity="0.0" inkscape:pageshadow="2" inkscape:window-height="854" inkscape:window-width="1440" inkscape:window-x="0" inkscape:window-y="0" inkscape:zoom="13.977778" objecttolerance="10.0" pagecolor="#ffffff" showgrid="false"/>
  <path d="M 15.238474,14.487282 A 2.4682035,2.5397456 0 1 1 10.302067,14.487282 A 2.4682035,2.5397456 0 1 1 15.238474,14.487282 z" id="path2387" sodipodi:cx="12.77027" sodipodi:cy="14.487282" sodipodi:rx="2.4682035" sodipodi:ry="2.5397456" sodipodi:type="arc" style="fill:&fill_color;;fill-rule:evenodd;stroke:&stroke_color;;stroke-width:1px;stroke-linecap:butt;stroke-linejoin:miter;stroke-opacity:1" transform="matrix(1.0131333,0,0,0.9845943,-4.937986,-7.264095)"/>
  <path d="M 15.238474,14.487282 A 2.4682035,2.5397456 0 1 1 10.302067,14.487282 A 2.4682035,2.5397456 0 1 1 15.238474,14.487282 z" id="path3159" sodipodi:cx="12.77027" sodipodi:cy="14.487282" sodipodi:rx="2.4682035" sodipodi:ry="2.5397456" sodipodi:type="arc" style="fill:&fill_color;;fill-rule:evenodd;stroke:&stroke_color;;stroke-width:1px;stroke-linecap:butt;stroke-linejoin:miter;stroke-opacity:1" transform="matrix(1.6885554,0,0,1.6409904,-5.563309,-13.77349)"/>
  <path d="M 15.238474,14.487282 A 2.4682035,2.5397456 0 1 1 10.302067,14.487282 A 2.4682035,2.5397456 0 1 1 15.238474,14.487282 z" id="path3161" sodipodi:cx="12.77027" sodipodi:cy="14.487282" sodipodi:rx="2.4682035" sodipodi:ry="2.5397456" sodipodi:type="arc" style="fill:&fill_color;;fill-rule:evenodd;stroke:&stroke_color;;stroke-width:1px;stroke-linecap:butt;stroke-linejoin:miter;stroke-opacity:1" transform="matrix(1.3508443,0,0,1.3127923,-8.2379289,-2.4194283)"/>
  <path d="M 15.238474,14.487282 A 2.4682035,2.5397456 0 1 1 10.302067,14.487282 A 2.4682035,2.5397456 0 1 1 15.238474,14.487282 z" id="path3163" sodipodi:cx="12.77027" sodipodi:cy="14.487282" sodipodi:rx="2.4682035" sodipodi:ry="2.5397456" sodipodi:type="arc" style="fill:&fill_color;;fill-rule:evenodd;stroke:&stroke_color;;stroke-width:1px;stroke-linecap:butt;stroke-linejoin:miter;stroke-opacity:1" transform="matrix(1.0131333,0,0,0.9845943,3.3020775,7.1270017)"/>
  <path d="M 15.238474,14.487282 A 2.4682035,2.5397456 0 1 1 10.302067,14.487282 A 2.4682035,2.5397456 0 1 1 15.238474,14.487282 z" id="path3165" sodipodi:cx="12.77027" sodipodi:cy="14.487282" sodipodi:rx="2.4682035" sodipodi:ry="2.5397456" sodipodi:type="arc" style="fill:&fill_color;;fill-rule:evenodd;stroke:&stroke_color;;stroke-width:1px;stroke-linecap:butt;stroke-linejoin:miter;stroke-opacity:1" transform="matrix(1.0131333,0,0,0.9845943,-2.5643772,10.274856)"/>
  <path d="M 15.238474,14.487282 A 2.4682035,2.5397456 0 1 1 10.302067,14.487282 A 2.4682035,2.5397456 0 1 1 15.238474,14.487282 z" id="path3167" sodipodi:cx="12.77027" sodipodi:cy="14.487282" sodipodi:rx="2.4682035" sodipodi:ry="2.5397456" sodipodi:type="arc" style="fill:&fill_color;;fill-rule:evenodd;stroke:&stroke_color;;stroke-width:1px;stroke-linecap:butt;stroke-linejoin:miter;stroke-opacity:1" transform="matrix(1.0131333,0,0,0.9845943,20.400645,12.421119)"/>
  <path d="M 15.238474,14.487282 A 2.4682035,2.5397456 0 1 1 10.302067,14.487282 A 2.4682035,2.5397456 0 1 1 15.238474,14.487282 z" id="path3169" sodipodi:cx="12.77027" sodipodi:cy="14.487282" sodipodi:rx="2.4682035" sodipodi:ry="2.5397456" sodipodi:type="arc" style="fill:&fill_color;;fill-rule:evenodd;stroke:&stroke_color;;stroke-width:1px;stroke-linecap:butt;stroke-linejoin:miter;stroke-opacity:1" transform="matrix(1.0131333,0,0,0.9845943,4.7329201,14.638926)"/>
  <path d="M 15.238474,14.487282 A 2.4682035,2.5397456 0 1 1 10.302067,14.487282 A 2.4682035,2.5397456 0 1 1 15.238474,14.487282 z" id="path3171" sodipodi:cx="12.77027" sodipodi:cy="14.487282" sodipodi:rx="2.4682035" sodipodi:ry="2.5397456" sodipodi:type="arc" style="fill:&fill_color;;fill-rule:evenodd;stroke:&stroke_color;;stroke-width:1px;stroke-linecap:butt;stroke-linejoin:miter;stroke-opacity:1" transform="matrix(1.0131333,0,0,0.9845943,11.600964,-6.3944607)"/>
  <path d="M 15.238474,14.487282 A 2.4682035,2.5397456 0 1 1 10.302067,14.487282 A 2.4682035,2.5397456 0 1 1 15.238474,14.487282 z" id="path3173" sodipodi:cx="12.77027" sodipodi:cy="14.487282" sodipodi:rx="2.4682035" sodipodi:ry="2.5397456" sodipodi:type="arc" style="fill:&fill_color;;fill-rule:evenodd;stroke:&stroke_color;;stroke-width:1px;stroke-linecap:butt;stroke-linejoin:miter;stroke-opacity:1" transform="matrix(1.0131333,0,0,0.9845943,17.038167,6.554665)"/>
  <path d="M 15.238474,14.487282 A 2.4682035,2.5397456 0 1 1 10.302067,14.487282 A 2.4682035,2.5397456 0 1 1 15.238474,14.487282 z" id="path3175" sodipodi:cx="12.77027" sodipodi:cy="14.487282" sodipodi:rx="2.4682035" sodipodi:ry="2.5397456" sodipodi:type="arc" style="fill:&fill_color;;fill-rule:evenodd;stroke:&stroke_color;;stroke-width:1px;stroke-linecap:butt;stroke-linejoin:miter;stroke-opacity:1" transform="matrix(1.3508443,0,0,1.3127923,6.7859191,5.8079167)"/>
  <path d="M 15.238474,14.487282 A 2.4682035,2.5397456 0 1 1 10.302067,14.487282 A 2.4682035,2.5397456 0 1 1 15.238474,14.487282 z" id="path3177" sodipodi:cx="12.77027" sodipodi:cy="14.487282" sodipodi:rx="2.4682035" sodipodi:ry="2.5397456" sodipodi:type="arc" style="fill:&fill_color;;fill-rule:evenodd;stroke:&stroke_color;;stroke-width:1px;stroke-linecap:butt;stroke-linejoin:miter;stroke-opacity:1" transform="matrix(1.3508443,0,0,1.3127923,19.951261,-0.4178382)"/>
  <path d="M 15.238474,14.487282 A 2.4682035,2.5397456 0 1 1 10.302067,14.487282 A 2.4682035,2.5397456 0 1 1 15.238474,14.487282 z" id="path3179" sodipodi:cx="12.77027" sodipodi:cy="14.487282" sodipodi:rx="2.4682035" sodipodi:ry="2.5397456" sodipodi:type="arc" style="fill:&fill_color;;fill-rule:evenodd;stroke:&stroke_color;;stroke-width:1px;stroke-linecap:butt;stroke-linejoin:miter;stroke-opacity:1" transform="matrix(1.3508443,0,0,1.3127923,5.642835,-2.8502705)"/>
  <path d="M 15.238474,14.487282 A 2.4682035,2.5397456 0 1 1 10.302067,14.487282 A 2.4682035,2.5397456 0 1 1 15.238474,14.487282 z" id="path3181" sodipodi:cx="12.77027" sodipodi:cy="14.487282" sodipodi:rx="2.4682035" sodipodi:ry="2.5397456" sodipodi:type="arc" style="fill:&fill_color;;fill-rule:evenodd;stroke:&stroke_color;;stroke-width:1px;stroke-linecap:butt;stroke-linejoin:miter;stroke-opacity:1" transform="matrix(1.6885554,0,0,1.6409904,15.066261,-14.32993)"/>
  <path d="M 15.238474,14.487282 A 2.4682035,2.5397456 0 1 1 10.302067,14.487282 A 2.4682035,2.5397456 0 1 1 15.238474,14.487282 z" id="path3183" sodipodi:cx="12.77027" sodipodi:cy="14.487282" sodipodi:rx="2.4682035" sodipodi:ry="2.5397456" sodipodi:type="arc" style="fill:&fill_color;;fill-rule:evenodd;stroke:&stroke_color;;stroke-width:1px;stroke-linecap:butt;stroke-linejoin:miter;stroke-opacity:1" transform="matrix(1.6885554,0,0,1.6409904,-10.688905,10.137479)"/>
  <path d="M 15.238474,14.487282 A 2.4682035,2.5397456 0 1 1 10.302067,14.487282 A 2.4682035,2.5397456 0 1 1 15.238474,14.487282 z" id="path3185" sodipodi:cx="12.77027" sodipodi:cy="14.487282" sodipodi:rx="2.4682035" sodipodi:ry="2.5397456" sodipodi:type="arc" style="fill:&fill_color;;fill-rule:evenodd;stroke:&stroke_color;;stroke-width:1px;stroke-linecap:butt;stroke-linejoin:miter;stroke-opacity:1" transform="matrix(1.6885554,0,0,1.6409904,5.4796163,10.49519)"/>
  <path d="M 15.238474,14.487282 A 2.4682035,2.5397456 0 1 1 10.302067,14.487282 A 2.4682035,2.5397456 0 1 1 15.238474,14.487282 z" id="path3187" sodipodi:cx="12.77027" sodipodi:cy="14.487282" sodipodi:rx="2.4682035" sodipodi:ry="2.5397456" sodipodi:type="arc" style="fill:&fill_color;;fill-rule:evenodd;stroke:&stroke_color;;stroke-width:1px;stroke-linecap:butt;stroke-linejoin:miter;stroke-opacity:1" transform="matrix(1.0131333,0,0,0.9845943,5.8775942,22.079308)"/>
  <path d="M 15.238474,14.487282 A 2.4682035,2.5397456 0 1 1 10.302067,14.487282 A 2.4682035,2.5397456 0 1 1 15.238474,14.487282 z" id="path3189" sodipodi:cx="12.77027" sodipodi:cy="14.487282" sodipodi:rx="2.4682035" sodipodi:ry="2.5397456" sodipodi:type="arc" style="fill:&fill_color;;fill-rule:evenodd;stroke:&stroke_color;;stroke-width:1px;stroke-linecap:butt;stroke-linejoin:miter;stroke-opacity:1" transform="matrix(1.3508443,0,0,1.3127923,19.307382,14.892178)"/>
  <path d="M 15.238474,14.487282 A 2.4682035,2.5397456 0 1 1 10.302067,14.487282 A 2.4682035,2.5397456 0 1 1 15.238474,14.487282 z" id="path3191" sodipodi:cx="12.77027" sodipodi:cy="14.487282" sodipodi:rx="2.4682035" sodipodi:ry="2.5397456" sodipodi:type="arc" style="fill:&fill_color;;fill-rule:evenodd;stroke:&stroke_color;;stroke-width:1px;stroke-linecap:butt;stroke-linejoin:miter;stroke-opacity:1" transform="matrix(1.0131333,0,0,0.9845943,17.109708,0.2589573)"/>
</svg>